# xmcd
#
# Track frame offsets:
#	150
#	22334
#	40264
#	58155
#	77182
#	93222
#	114032
#	135552
#	155331
#	177591
#	197920
#	215726
#	234761
#	256524
#	278344
#	300235
#	324096
#
# Disc length: 4607 seconds
#
# Revision: 0
# Processed by: cddbd v1.5.2PL0 Copyright (c) Steve Scherf et al.
# Submitted via: audiograbber 1.83.01
#
DISCID=d511fd11
DTITLE=XMIX - Chartbusters Vol55
DYEAR=2010
DGENRE=DANCE
TTITLE0=jay-z ft mr. hudsoN - young forever 140 BPM
TTITLE1=selena gomez and the scene - naturally 132 BPM
TTITLE2=justin bieber ft ludacris - baby 130 BPM
TTITLE3=iyaz - Solo 130 BPM
TTITLE4=three days grace - the good life 128 BPM
TTITLE5=lifehouse - halfway gone 125 BPM
TTITLE6=taio cruz ft ludacris - break your heart 122 BPM
TTITLE7=j king y maximan - cuando cuando 121 BPM
TTITLE8=taylor swift - Fearless 100BPM
TTITLE9=angel y khriz - ayer la vi 100 BPM
TTITLE10=new boyz ft ray j - tie me down 98 BPM
TTITLE11=godsmack - cryin like a bitch 95 BPM
TTITLE12=shontelle - impossible 90 BPM
TTITLE13=lady antebellum - american honey 86 BPM
TTITLE14=owl city - vanilla twilight 83 BPM
TTITLE15=taylor swift - today was a fairytale 79 BPM
TTITLE16=darius rucker - history in the making 79 BPM
EXTD=
EXTT0=
EXTT1=
EXTT2=
EXTT3=
EXTT4=
EXTT5=
EXTT6=
EXTT7=
EXTT8=
EXTT9=
EXTT10=
EXTT11=
EXTT12=
EXTT13=
EXTT14=
EXTT15=
EXTT16=
PLAYORDER=
